<svg width="32" height="32" viewBox="0 0 32 32" fill="none" xmlns="http://www.w3.org/2000/svg">
<g clip-path="url(#clip0_91_178)">
<path d="M4.79961 12.8003H1.59961V22.4003H4.79961V12.8003Z" fill="white"/>
<path d="M16.0004 30.4002C16.884 30.4002 17.6004 29.6839 17.6004 28.8002C17.6004 27.9165 16.884 27.2002 16.0004 27.2002C15.1167 27.2002 14.4004 27.9165 14.4004 28.8002C14.4004 29.6839 15.1167 30.4002 16.0004 30.4002Z" fill="white"/>
<path d="M30.4012 12.7998H27.2012V22.3998H30.4012V12.7998Z" fill="white"/>
<path d="M31.0625 11.0458H27.9469C27.467 4.87461 22.2922 0 16.0001 0C9.70795 0 4.53299 4.87461 4.05313 11.0458H0.937509C0.419794 11.0458 0 11.4656 0 11.9833V22.0249C0 22.5428 0.419794 22.9624 0.937509 22.9624H4.95416C5.47201 22.9624 5.89167 22.5428 5.89167 22.0249V11.9833C5.89167 6.40952 10.4263 1.87488 16.0001 1.87488C21.5738 1.87488 26.1083 6.40952 26.1083 11.9833V22.0249C26.1083 25.3839 23.3756 28.1167 20.0167 28.1167H18.792C18.3995 26.9507 17.2966 26.1083 16.0001 26.1083C14.3757 26.1083 13.0541 27.4298 13.0541 29.0542C13.0541 30.6785 14.3757 32 16.0001 32C17.2966 32 18.3995 31.1577 18.792 29.9917H20.0167C24.0923 29.9917 27.4624 26.9151 27.928 22.9624H31.0625C31.5803 22.9624 32 22.5428 32 22.0249V11.9833C32 11.4656 31.5803 11.0458 31.0625 11.0458ZM4.01665 21.0875H1.87502V12.9208H4.01665V21.0875ZM16.0001 30.125C15.4095 30.125 14.9291 29.6446 14.9291 29.0542C14.9291 28.4638 15.4095 27.9834 16.0001 27.9834C16.5905 27.9834 17.0709 28.4638 17.0709 29.0542C17.0709 29.6446 16.5905 30.125 16.0001 30.125ZM30.125 21.0875H27.9834V12.9208H30.125V21.0875Z" fill="#73BF8F"/>
<path d="M22.8856 11.1171C22.5354 10.972 22.1321 11.0521 21.864 11.3202C21.864 11.3202 18.937 14.2463 17.5492 15.6331C16.9259 16.2598 16.5684 17.1254 16.5684 18.0082C16.5684 18.5259 16.9881 18.9457 17.5059 18.9457H21.5893V21.0207C21.5893 21.5386 22.0091 21.9582 22.5268 21.9582C23.0445 21.9582 23.4643 21.5386 23.4643 21.0207V18.9457H23.531C24.0487 18.9457 24.4685 18.5259 24.4685 18.0082C24.4685 17.4905 24.0487 17.0707 23.531 17.0707H23.4643V11.9833C23.4643 11.6041 23.2358 11.2623 22.8856 11.1171ZM21.5893 17.0707H18.775C18.8069 17.0312 18.8408 16.9934 18.8766 16.9573C19.5788 16.2557 20.677 15.158 21.5893 14.246V17.0707Z" fill="#73BF8F"/>
<path d="M14.929 21.0206C14.929 20.5029 14.5093 20.0831 13.9915 20.0831H10.2399C10.2717 20.0436 10.3055 20.0056 10.3413 19.9697C11.7272 18.5848 14.6544 15.6586 14.6544 15.6586C14.8302 15.4828 14.929 15.2443 14.929 14.9956V14.4936C14.929 12.5924 13.3823 11.0457 11.4811 11.0457C9.56111 11.0457 8.0332 12.6014 8.0332 14.4925C8.0332 15.0103 8.453 15.4305 8.97071 15.4305C9.48843 15.4305 9.90822 15.0102 9.90822 14.4925C9.90822 13.6331 10.6001 12.9205 11.4811 12.9205C12.3484 12.9205 13.054 13.6263 13.054 14.4936V14.6071C12.2938 15.367 10.1439 17.5163 9.01391 18.6454C8.3906 19.2722 8.0332 20.138 8.0332 21.0206C8.0332 21.5383 8.453 21.9581 8.97071 21.9581H13.9915C14.5093 21.9581 14.929 21.5385 14.929 21.0206Z" fill="#73BF8F"/>
</g>
<defs>
<clipPath id="clip0_91_178">
<rect width="32" height="32" fill="white"/>
</clipPath>
</defs>
</svg>
