<svg width="34" height="24" viewBox="0 0 34 24" fill="none" xmlns="http://www.w3.org/2000/svg">
<g clip-path="url(#clip0_91_185)">
<path d="M21.1782 23.6862C27.1791 23.6862 32.0439 18.8215 32.0439 12.8205C32.0439 6.81957 27.1791 1.95483 21.1782 1.95483C15.1772 1.95483 10.3125 6.81957 10.3125 12.8205C10.3125 18.8215 15.1772 23.6862 21.1782 23.6862Z" fill="white"/>
<path d="M21.4281 11.1974L21.9348 11.7041L22.4413 11.1974L24.8976 8.74111C25.0003 8.63838 25.1671 8.63838 25.2697 8.74111C25.3724 8.84385 25.3724 9.01034 25.2697 9.11293L22.1208 12.262C22.018 12.3648 21.8514 12.3648 21.7487 12.262L19.4833 9.99657C19.3805 9.89383 19.3806 9.72734 19.4832 9.6246C19.5861 9.52187 19.7526 9.52201 19.8553 9.6246L21.4281 11.1974Z" fill="#73BF8F" stroke="#73BF8F"/>
<path d="M15.0838 3.18848L15.3272 3.19722L15.5255 3.0558C22.7807 -2.11718 33 3.05508 33 12.0759C33 18.145 28.0868 23.1405 21.9356 23.1406C19.6103 23.1406 17.3848 22.4228 15.5255 21.0964L15.3267 20.9545L15.0826 20.9637C15.0869 20.9635 15.0285 20.9635 14.908 20.9637C14.811 20.9638 14.6737 20.964 14.4969 20.9641L12.9308 20.9647C11.6393 20.965 9.923 20.9651 8.20502 20.9653C5.11697 20.9653 2.02405 20.9651 1.38285 20.9651H1.26307C1.11778 20.9651 1 20.8473 1 20.7021C1 20.5568 1.11778 20.439 1.26307 20.439H12.9735H14.5294L13.518 19.2568C12.0238 17.5106 11.0996 15.3233 10.9092 12.9971L10.8553 12.3392H10.1952H4.5116C4.36645 12.3392 4.24853 12.2214 4.24853 12.0761C4.24853 11.9308 4.36645 11.813 4.5116 11.813H10.1952H10.8553L10.9092 11.1551C11.1001 8.82526 12.0268 6.63904 13.518 4.89527L14.5289 3.71318H12.9735H8.1427C7.99741 3.71318 7.87963 3.5954 7.87963 3.45011C7.87963 3.30482 7.99741 3.18705 8.1427 3.18705H15.0553C15.0617 3.18747 15.0719 3.18805 15.0838 3.18848ZM11.3974 12.0759C11.3974 17.9493 16.1599 22.6143 21.9356 22.6143C27.78 22.6143 32.4739 17.8726 32.4739 12.0759C32.4739 2.80405 21.3505 -1.90383 14.6815 4.43232C12.5652 6.44202 11.3974 9.15983 11.3974 12.0759Z" fill="#73BF8F" stroke="#73BF8F"/>
<path d="M22.3089 5.68793C22.3089 5.89354 22.1423 6.06018 21.9366 6.06018C21.7312 6.06018 21.5645 5.89354 21.5645 5.68793C21.5645 5.48231 21.7312 5.31567 21.9366 5.31567C22.1423 5.31567 22.3089 5.48231 22.3089 5.68793Z" fill="#73BF8F" stroke="#73BF8F"/>
<path d="M21.9362 19.5529C22.5375 19.5529 23.0249 19.0655 23.0249 18.4643C23.0249 17.863 22.5375 17.3757 21.9362 17.3757C21.335 17.3757 20.8477 17.863 20.8477 18.4643C20.8477 19.0655 21.335 19.5529 21.9362 19.5529Z" fill="#73BF8F"/>
<path d="M28.2877 10.9512C27.6865 10.9512 27.1992 11.4386 27.1992 12.0398C27.1992 12.6411 27.6865 13.1284 28.2877 13.1284C28.889 13.1284 29.3764 12.6411 29.3764 12.0398C29.3764 11.4386 28.889 10.9512 28.2877 10.9512Z" fill="#73BF8F"/>
<path d="M15.6807 13.1154C16.2742 13.0193 16.6773 12.4602 16.581 11.8669C16.4848 11.2734 15.9258 10.8703 15.3324 10.9666C14.7391 11.0628 14.3359 11.6218 14.4322 12.2152C14.5283 12.8087 15.0874 13.2117 15.6807 13.1154Z" fill="#73BF8F"/>
</g>
<defs>
<clipPath id="clip0_91_185">
<rect width="34" height="24" fill="white"/>
</clipPath>
</defs>
</svg>
