<svg width="459" height="122" viewBox="0 0 459 122" fill="none" xmlns="http://www.w3.org/2000/svg">
<path d="M100.7 69.1701V51.4601C100.7 49.7201 99.2901 48.3101 97.5501 48.3101H62.4601C58.6501 48.3101 54.9401 49.6201 52.0501 52.1001C51.9501 52.1901 51.8501 52.2701 51.7501 52.3601C48.4501 55.3401 46.3701 59.6601 46.3701 64.4601V64.4801C46.3701 65.0401 47.1001 65.2501 47.4001 64.7801C50.4401 59.9201 55.8401 56.6801 62.0001 56.6801C62.4801 56.6801 62.9501 56.7001 63.4201 56.7401C70.5001 57.3201 76.3601 62.1801 78.4201 68.7301C78.9301 70.3601 79.2101 72.0901 79.2101 73.8901C79.2101 76.3301 78.7001 78.6601 77.7801 80.7701C77.6201 81.1401 77.9001 81.5501 78.3001 81.5501H88.3201C95.1601 81.5501 100.7 76.0101 100.7 69.1701Z" fill="#76BC8D"/>
<path d="M11.5098 60.6901V78.4001C11.5098 80.1401 12.9198 81.5501 14.6598 81.5501H49.7498C53.5598 81.5501 57.2698 80.2401 60.1598 77.7601C60.2598 77.6701 60.3598 77.5901 60.4598 77.5001C63.7598 74.5201 65.8398 70.2001 65.8398 65.4001V65.3801C65.8398 64.8201 65.1098 64.6101 64.8098 65.0801C61.7698 69.9401 56.3698 73.1801 50.2098 73.1801C49.7298 73.1801 49.2598 73.1601 48.7898 73.1201C41.7098 72.5401 35.8498 67.6801 33.7898 61.1301C33.2798 59.5001 32.9998 57.7701 32.9998 55.9701C32.9998 53.5301 33.5098 51.2001 34.4298 49.0901C34.5898 48.7201 34.3098 48.3101 33.9098 48.3101H23.8898C17.0498 48.3101 11.5098 53.8501 11.5098 60.6901Z" fill="#76BC8D"/>
<path d="M69.5793 109.66H51.8693C45.0293 109.66 39.4893 104.12 39.4893 97.28V89.06C39.4893 88.66 39.8993 88.39 40.2693 88.55C43.2493 89.8 46.5193 90.5 49.9593 90.5C59.2693 90.5 67.3893 85.41 71.6893 77.86C71.9693 77.36 72.7393 77.56 72.7393 78.14V106.52C72.7393 108.26 71.3293 109.67 69.5893 109.67L69.5793 109.66Z" fill="#76BC8D"/>
<path d="M42.6395 20.1999H60.3495C67.1895 20.1999 72.7295 25.7399 72.7295 32.5799V40.7999C72.7295 41.1999 72.3195 41.4699 71.9495 41.3099C68.9695 40.0599 65.6995 39.3599 62.2595 39.3599C52.9495 39.3599 44.8295 44.4499 40.5295 51.9999C40.2495 52.4999 39.4795 52.2999 39.4795 51.7199V23.3399C39.4795 21.5999 40.8895 20.1899 42.6295 20.1899L42.6395 20.1999Z" fill="#76BC8D"/>
<path d="M118.72 82.26H121.36L124.04 92.4L126.64 82.26H130.69V95.57H128.13V84.82L125.41 95.57H122.63L119.91 84.82V95.57H117.35V83.69C117.35 82.92 117.96 82.26 118.72 82.26Z" fill="#4F6C32"/>
<path d="M136.949 82.26H138.299V90.48C138.299 92.42 139.159 93.4 140.859 93.42C142.559 93.44 143.419 92.44 143.419 90.48V82.26H146.119V90.79C146.119 94.06 144.199 95.76 140.849 95.76C137.499 95.76 135.569 94.15 135.569 90.79V83.69C135.569 82.97 136.199 82.26 136.939 82.26H136.949Z" fill="#4F6C32"/>
<path d="M152.29 82.26H153.64V93.12H160.14V95.57H150.92V83.69C150.92 82.92 151.53 82.26 152.29 82.26Z" fill="#4F6C32"/>
<path d="M163.889 82.26H173.109V84.63H169.179V95.57H166.459V84.63H162.529V83.69C162.529 82.92 163.139 82.26 163.899 82.26H163.889Z" fill="#4F6C32"/>
<path d="M177.89 83.69C177.89 82.75 178.34 82.26 179.26 82.26H180.61V95.57H177.89V83.69Z" fill="#4F6C32"/>
<path d="M193.639 91.87C193.639 91.22 193.249 90.79 192.429 90.56C191.649 90.33 190.749 90.09 189.789 89.84C187.189 89.17 185.889 87.96 185.889 86.2C185.949 83.4 187.609 82.03 190.899 82.05C194.029 82.05 195.659 83.42 195.809 86.18H194.279C193.709 86.18 193.319 85.91 193.069 85.4C192.619 84.64 191.819 84.27 190.659 84.27C189.249 84.29 188.539 84.82 188.489 85.83C188.489 86.67 189.329 87.28 191.069 87.67C192.069 87.9 193.119 88.2 194.239 88.59C195.729 89.1 196.429 90.2 196.349 91.88C196.189 94.48 194.429 95.78 191.069 95.78C187.709 95.78 185.769 94.31 185.689 91.42H188.329C188.429 92.83 189.329 93.53 191.069 93.53C192.809 93.53 193.649 92.98 193.629 91.89L193.639 91.87Z" fill="#4F6C32"/>
<path d="M207.31 90.83H203.94V95.57H201.22V83.69C201.22 82.92 201.83 82.26 202.59 82.26H207.11C209.93 82.26 211.4 83.77 211.4 86.55C211.4 89.17 209.97 90.84 207.31 90.84V90.83ZM206.62 88.42C207.99 88.44 208.67 87.79 208.67 86.5C208.67 85.21 208.02 84.56 206.75 84.56H203.97V88.42H206.61H206.62Z" fill="#4F6C32"/>
<path d="M216.22 83.69C216.22 82.77 216.67 82.28 217.59 82.26H225.85V84.57H218.9V87.43H224.09V88.31C224.11 89.23 223.64 89.68 222.68 89.68H218.9V93.13H225.85V95.58H216.22V83.7V83.69Z" fill="#4F6C32"/>
<path d="M236.73 95.7701C232.64 95.7701 230.6 93.07 230.6 88.92C230.6 84.77 232.75 82.05 236.96 82.05C238.58 82.05 239.9 82.44 240.9 83.26C241.84 84.1 242.37 85.26 242.5 86.7H240.86C240.27 86.7 239.84 86.43 239.59 85.9C239.14 84.94 238.26 84.45 236.97 84.45C234.45 84.45 233.33 86.23 233.33 88.91C233.33 91.59 234.41 93.3501 236.89 93.3501C238.59 93.3501 239.57 92.41 239.86 90.94H242.5C242.24 94.01 240.09 95.76 236.73 95.76V95.7701Z" fill="#4F6C32"/>
<path d="M247.35 83.69C247.35 82.75 247.8 82.26 248.72 82.26H250.07V95.57H247.35V83.69Z" fill="#4F6C32"/>
<path d="M262.839 82.26L267.619 95.57H264.739L263.859 92.85H258.709L257.829 95.57H254.909L259.349 83.14C259.549 82.55 259.979 82.26 260.639 82.26H262.829H262.839ZM259.429 90.6H263.089L261.249 84.94L259.429 90.6Z" fill="#4F6C32"/>
<path d="M273.83 82.26H275.18V93.12H281.68V95.57H272.46V83.69C272.46 82.92 273.07 82.26 273.83 82.26Z" fill="#4F6C32"/>
<path d="M286.35 83.69C286.35 82.75 286.8 82.26 287.72 82.26H289.07V95.57H286.35V83.69Z" fill="#4F6C32"/>
<path d="M295.32 82.26H304.54V84.63H300.61V95.57H297.89V84.63H293.96V83.69C293.96 82.92 294.57 82.26 295.33 82.26H295.32Z" fill="#4F6C32"/>
<path d="M314.019 95.57V90.6L309.199 82.26H312.529L315.409 88L317.659 83.07C317.909 82.54 318.329 82.27 318.909 82.27H321.139L316.779 90.61V95.58H314.019V95.57Z" fill="#4F6C32"/>
<path d="M339.92 82.26H341.31V87.23H346.77V82.26H349.53V95.57H346.77V89.68H341.31V95.57H338.55V83.69C338.55 82.92 339.16 82.26 339.92 82.26Z" fill="#4F6C32"/>
<path d="M354.199 88.91C354.199 84.84 356.609 82.04 360.559 82.04C364.509 82.04 366.939 84.88 366.939 88.91C366.939 92.94 364.609 95.76 360.559 95.76C356.509 95.76 354.199 92.98 354.199 88.91ZM356.919 88.91C356.919 91.51 358.069 93.47 360.559 93.47C363.049 93.47 364.219 91.59 364.219 88.91C364.219 86.23 363.049 84.41 360.559 84.41C358.069 84.41 356.919 86.33 356.919 88.91Z" fill="#4F6C32"/>
<path d="M379.929 91.87C379.929 91.22 379.539 90.79 378.719 90.56C377.939 90.33 377.039 90.09 376.079 89.84C373.479 89.17 372.179 87.96 372.179 86.2C372.239 83.4 373.899 82.03 377.189 82.05C380.319 82.05 381.949 83.42 382.099 86.18H380.569C379.999 86.18 379.609 85.91 379.359 85.4C378.909 84.64 378.109 84.27 376.949 84.27C375.539 84.29 374.829 84.82 374.779 85.83C374.779 86.67 375.619 87.28 377.359 87.67C378.359 87.9 379.409 88.2 380.529 88.59C382.019 89.1 382.719 90.2 382.639 91.88C382.479 94.48 380.719 95.78 377.359 95.78C373.999 95.78 372.059 94.31 371.979 91.42H374.619C374.719 92.83 375.619 93.53 377.359 93.53C379.099 93.53 379.939 92.98 379.919 91.89L379.929 91.87Z" fill="#4F6C32"/>
<path d="M393.6 90.83H390.23V95.57H387.51V83.69C387.51 82.92 388.12 82.26 388.88 82.26H393.4C396.22 82.26 397.69 83.77 397.69 86.55C397.69 89.17 396.26 90.84 393.6 90.84V90.83ZM392.92 88.42C394.29 88.44 394.97 87.79 394.97 86.5C394.97 85.21 394.32 84.56 393.05 84.56H390.27V88.42H392.91H392.92Z" fill="#4F6C32"/>
<path d="M402.439 83.69C402.439 82.75 402.889 82.26 403.809 82.26H405.159V95.57H402.439V83.69Z" fill="#4F6C32"/>
<path d="M411.41 82.26H420.63V84.63H416.7V95.57H413.98V84.63H410.05V83.69C410.05 82.92 410.66 82.26 411.42 82.26H411.41Z" fill="#4F6C32"/>
<path d="M430.619 82.26L435.399 95.57H432.519L431.639 92.85H426.489L425.609 95.57H422.689L427.129 83.14C427.329 82.55 427.759 82.26 428.419 82.26H430.609H430.619ZM427.209 90.6H430.869L429.029 84.94L427.209 90.6Z" fill="#4F6C32"/>
<path d="M441.609 82.26H442.959V93.12H449.459V95.57H440.239V83.69C440.239 82.92 440.849 82.26 441.609 82.26Z" fill="#4F6C32"/>
<path d="M116.59 72.26H449.92" stroke="#818181" stroke-width="0.55" stroke-miterlimit="10"/>
<path d="M132.39 42.7101C131.84 42.0101 131.12 41.4601 130.24 41.0501C129.35 40.6401 128.5 40.4301 127.68 40.4301C127.26 40.4301 126.83 40.4701 126.39 40.5401C125.95 40.6101 125.56 40.7601 125.21 40.9701C124.86 41.1801 124.57 41.4601 124.33 41.7901C124.09 42.1301 123.97 42.5601 123.97 43.0801C123.97 43.5301 124.06 43.9001 124.25 44.2001C124.44 44.5001 124.71 44.7601 125.07 44.9901C125.43 45.2101 125.86 45.4201 126.36 45.6101C126.86 45.8001 127.42 45.9901 128.04 46.1901C128.94 46.4901 129.87 46.8201 130.85 47.1801C131.82 47.5401 132.71 48.0201 133.51 48.6201C134.31 49.2201 134.97 49.9601 135.49 50.8501C136.01 51.7401 136.28 52.8401 136.28 54.1601C136.28 55.6801 136 57.0001 135.44 58.1101C134.88 59.2201 134.12 60.1401 133.18 60.8601C132.23 61.5801 131.15 62.1201 129.92 62.4701C128.7 62.8201 127.44 62.9901 126.14 62.9901C124.24 62.9901 122.41 62.6601 120.64 62.0001C118.87 61.3401 117.4 60.4001 116.22 59.1701L120.41 54.9001C121.06 55.7001 121.91 56.3601 122.97 56.9001C124.03 57.4401 125.08 57.7101 126.13 57.7101C126.6 57.7101 127.06 57.6601 127.52 57.5601C127.97 57.4601 128.36 57.3001 128.7 57.0701C129.04 56.8501 129.31 56.5501 129.51 56.1701C129.71 55.8001 129.81 55.3501 129.81 54.8201C129.81 54.2901 129.68 53.9001 129.43 53.5501C129.18 53.2001 128.82 52.8801 128.36 52.6001C127.9 52.3101 127.33 52.0501 126.64 51.8101C125.95 51.5701 125.18 51.3201 124.3 51.0401C123.45 50.7701 122.62 50.4401 121.81 50.0701C121 49.7001 120.28 49.2201 119.64 48.6301C119 48.0401 118.49 47.3301 118.11 46.5001C117.72 45.6601 117.53 44.6501 117.53 43.4501C117.53 41.9801 117.83 40.7201 118.43 39.6701C119.03 38.6201 119.81 37.7601 120.79 37.0901C121.77 36.4201 122.86 35.9201 124.09 35.6101C125.31 35.3001 126.55 35.1401 127.8 35.1401C129.3 35.1401 130.83 35.4201 132.38 35.9601C133.93 36.5001 135.31 37.3201 136.48 38.3901L132.4 42.7001L132.39 42.7101Z" fill="#4F6C32"/>
<path d="M158.48 62.3201L156.42 57.1201H146.16L144.21 62.3201H137.25L148.37 35.8201H154.58L165.59 62.3201H158.48ZM151.37 42.9001L148 52.0001H154.66L151.36 42.9001H151.37Z" fill="#4F6C32"/>
<path d="M184.65 62.3201L173.98 44.9901H173.87L174.02 62.3201H167.81V35.8201H175.11L185.74 53.1101H185.85L185.7 35.8201H191.91V62.3201H184.65Z" fill="#4F6C32"/>
<path d="M216.37 62.3601C214.63 62.7801 212.74 63.0001 210.7 63.0001C208.66 63.0001 206.63 62.6601 204.84 61.9901C203.05 61.3201 201.52 60.3701 200.24 59.1501C198.95 57.9301 197.95 56.4601 197.23 54.7501C196.51 53.0401 196.14 51.1401 196.14 49.0401C196.14 46.9401 196.51 45.0001 197.24 43.2801C197.98 41.5601 198.99 40.0901 200.29 38.8801C201.59 37.6701 203.11 36.7401 204.86 36.0901C206.61 35.4401 208.49 35.1201 210.51 35.1201C212.53 35.1201 214.55 35.4401 216.35 36.0701C218.15 36.7001 219.61 37.5601 220.73 38.6301L216.69 43.2401C216.07 42.5201 215.24 41.9201 214.22 41.4601C213.2 41.0001 212.03 40.7701 210.74 40.7701C209.62 40.7701 208.58 40.9801 207.63 41.3901C206.68 41.8001 205.86 42.3801 205.16 43.1101C204.46 43.8401 203.92 44.7201 203.53 45.7301C203.14 46.7401 202.95 47.8401 202.95 49.0401C202.95 50.2401 203.12 51.3901 203.47 52.4101C203.82 53.4301 204.34 54.3101 205.02 55.0501C205.71 55.7901 206.55 56.3601 207.56 56.7701C208.57 57.1801 209.72 57.3901 211.02 57.3901C211.77 57.3901 212.48 57.3301 213.15 57.2201C213.82 57.1101 214.45 56.9301 215.02 56.6801V51.8501H209.97V46.6901H220.9V60.7301C219.6 61.4001 218.08 61.9501 216.35 62.3801L216.37 62.3601Z" fill="#4F6C32"/>
<path d="M244.12 62.3201L242.06 57.1201H231.8L229.85 62.3201H222.89L234.01 35.8201H240.22L251.23 62.3201H244.12ZM237.01 42.9001L233.64 52.0001H240.3L237 42.9001H237.01Z" fill="#4F6C32"/>
<path d="M277.48 62.3201L277.63 43.5701H277.52L270.63 62.3201H266.14L259.44 43.5701H259.33L259.48 62.3201H253.45V35.8201H262.56L268.59 52.8101H268.74L274.51 35.8201H283.77V62.3201H277.48Z" fill="#4F6C32"/>
<path d="M289.189 62.3201V35.8201H307.009V41.2101H295.369V46.2301H306.379V51.3601H295.369V56.8601H307.689V62.3201H289.199H289.189Z" fill="#4F6C32"/>
<path d="M325.909 42.7101C325.359 42.0101 324.639 41.4601 323.759 41.0501C322.869 40.6401 322.019 40.4301 321.199 40.4301C320.779 40.4301 320.349 40.4701 319.909 40.5401C319.469 40.6101 319.079 40.7601 318.729 40.9701C318.379 41.1801 318.089 41.4601 317.849 41.7901C317.609 42.1301 317.489 42.5601 317.489 43.0801C317.489 43.5301 317.579 43.9001 317.769 44.2001C317.959 44.5001 318.229 44.7601 318.589 44.9901C318.949 45.2101 319.379 45.4201 319.879 45.6101C320.379 45.8001 320.939 45.9901 321.559 46.1901C322.459 46.4901 323.389 46.8201 324.369 47.1801C325.339 47.5401 326.229 48.0201 327.029 48.6201C327.829 49.2201 328.489 49.9601 329.009 50.8501C329.529 51.7401 329.799 52.8401 329.799 54.1601C329.799 55.6801 329.519 57.0001 328.959 58.1101C328.399 59.2201 327.639 60.1401 326.699 60.8601C325.749 61.5801 324.669 62.1201 323.439 62.4701C322.219 62.8201 320.959 62.9901 319.659 62.9901C317.759 62.9901 315.929 62.6601 314.159 62.0001C312.389 61.3401 310.919 60.4001 309.739 59.1701L313.929 54.9001C314.579 55.7001 315.429 56.3601 316.489 56.9001C317.549 57.4401 318.599 57.7101 319.649 57.7101C320.119 57.7101 320.579 57.6601 321.039 57.5601C321.489 57.4601 321.879 57.3001 322.219 57.0701C322.559 56.8501 322.829 56.5501 323.029 56.1701C323.229 55.8001 323.329 55.3501 323.329 54.8201C323.329 54.2901 323.199 53.9001 322.949 53.5501C322.699 53.2001 322.339 52.8801 321.879 52.6001C321.419 52.3101 320.849 52.0501 320.159 51.8101C319.469 51.5701 318.699 51.3201 317.819 51.0401C316.969 50.7701 316.139 50.4401 315.329 50.0701C314.519 49.7001 313.799 49.2201 313.159 48.6301C312.519 48.0401 312.009 47.3301 311.629 46.5001C311.239 45.6601 311.049 44.6501 311.049 43.4501C311.049 41.9801 311.349 40.7201 311.949 39.6701C312.549 38.6201 313.329 37.7601 314.309 37.0901C315.289 36.4201 316.379 35.9201 317.609 35.6101C318.829 35.3001 320.069 35.1401 321.319 35.1401C322.819 35.1401 324.349 35.4201 325.899 35.9601C327.449 36.5001 328.829 37.3201 329.999 38.3901L325.919 42.7001L325.909 42.7101Z" fill="#4F6C32"/>
<path d="M350.77 62.3201V51.2401H340.44V62.3201H334.04V35.8201H340.44V45.8501H350.77V35.8201H357.17V62.3201H350.77Z" fill="#4F6C32"/>
<path d="M390.699 62.3201H384.369L379.129 44.3901H379.019L373.779 62.3201H367.419L359.899 35.8201H366.789L370.979 53.4501H371.089L375.809 35.8201H382.469L387.219 53.4501H387.329L391.599 35.8201H398.259L390.699 62.3201Z" fill="#4F6C32"/>
<path d="M418.52 62.3201L416.46 57.1201H406.2L404.25 62.3201H397.29L408.41 35.8201H414.62L425.63 62.3201H418.52ZM411.4 42.9001L408.03 52.0001H414.69L411.39 42.9001H411.4Z" fill="#4F6C32"/>
<path d="M442.02 62.3201L436.27 51.8001H434.09V62.3201H427.84V35.8201H437.95C439.22 35.8201 440.46 35.9501 441.67 36.2101C442.88 36.4701 443.97 36.9201 444.93 37.5401C445.89 38.1601 446.66 38.9901 447.23 40.0101C447.8 41.0301 448.09 42.3101 448.09 43.8301C448.09 45.6301 447.6 47.1401 446.63 48.3601C445.66 49.5801 444.31 50.4601 442.59 50.9801L449.51 62.3201H442.02ZM441.76 43.9401C441.76 43.3201 441.63 42.8101 441.36 42.4201C441.1 42.0301 440.76 41.7301 440.34 41.5201C439.92 41.3101 439.46 41.1601 438.95 41.0901C438.44 41.0201 437.94 40.9801 437.46 40.9801H434.04V47.1601H437.09C437.62 47.1601 438.16 47.1201 438.71 47.0301C439.26 46.9401 439.76 46.7901 440.21 46.5601C440.66 46.3301 441.03 46.0101 441.32 45.5901C441.61 45.1701 441.75 44.6201 441.75 43.9401H441.76Z" fill="#4F6C32"/>
</svg>
