<svg width="493" height="101" viewBox="0 0 493 101" fill="none" xmlns="http://www.w3.org/2000/svg">
<path d="M100.296 55.2858V35.2958C100.296 33.3318 98.7107 31.7402 96.754 31.7402H57.2947C53.0103 31.7402 48.8383 33.2189 45.5884 36.0182C45.476 36.1198 45.3635 36.2101 45.2511 36.3117C41.5402 39.6753 39.2012 44.5515 39.2012 49.9695V49.992C39.2012 50.6241 40.0221 50.8612 40.3594 50.3306C43.778 44.845 49.8504 41.1878 56.7774 41.1878C57.3172 41.1878 57.8457 41.2104 58.3742 41.2556C66.3358 41.9102 72.9255 47.3959 75.242 54.7892C75.8155 56.629 76.1303 58.5818 76.1303 60.6135C76.1303 63.3676 75.5568 65.9976 74.5223 68.3793C74.3424 68.7969 74.6572 69.2597 75.107 69.2597H86.3747C94.0664 69.2597 100.296 63.0064 100.296 55.2858Z" fill="#76BC8D"/>
<path d="M0 45.7141V65.7041C0 67.6681 1.58557 69.2597 3.54223 69.2597H43.0016C47.286 69.2597 51.458 67.781 54.7078 64.9817C54.8203 64.8802 54.9327 64.7899 55.0452 64.6883C58.7561 61.3246 61.0951 56.4484 61.0951 51.0305V51.0079C61.0951 50.3758 60.2742 50.1388 59.9368 50.6693C56.5183 56.155 50.4459 59.8121 43.5189 59.8121C42.9791 59.8121 42.4506 59.7895 41.922 59.7444C33.9605 59.0897 27.3708 53.604 25.0543 46.2107C24.4808 44.3709 24.1659 42.4182 24.1659 40.3864C24.1659 37.6323 24.7394 35.0023 25.774 32.6207C25.9539 32.203 25.639 31.7402 25.1892 31.7402H13.9215C6.22983 31.7402 0 37.9935 0 45.7141Z" fill="#76BC8D"/>
<path d="M65.3016 100.989H45.3864C37.6947 100.989 31.4648 94.7355 31.4648 87.0149V77.7366C31.4648 77.2851 31.9259 76.9803 32.342 77.1609C35.693 78.5719 39.3702 79.362 43.2386 79.362C53.7078 79.362 62.8389 73.6167 67.6743 65.0947C67.9892 64.5303 68.8551 64.756 68.8551 65.4107V97.4445C68.8551 99.4085 67.2695 101 65.3128 101L65.3016 100.989Z" fill="#76BC8D"/>
<path d="M35.0066 0.0112812H54.9218C62.6135 0.0112812 68.8434 6.26453 68.8434 13.9851V23.2634C68.8434 23.7149 68.3823 24.0197 67.9662 23.8391C64.6152 22.4281 60.938 21.638 57.0696 21.638C46.6004 21.638 37.4693 27.3833 32.6339 35.9053C32.319 36.4697 31.4531 36.244 31.4531 35.5893V3.55554C31.4531 1.59152 33.0387 0 34.9954 0L35.0066 0.0112812Z" fill="#76BC8D"/>
<path d="M120.559 70.0613H123.528L126.542 81.5067L129.465 70.0613H134.02V85.0849H131.141V72.9509L128.082 85.0849H124.956L121.897 72.9509V85.0849H119.019V71.6754C119.019 70.8063 119.705 70.0613 120.559 70.0613Z" fill="#4F6C32"/>
<path d="M141.059 70.0613H142.577V79.3396C142.577 81.5293 143.544 82.6355 145.456 82.6581C147.367 82.6806 148.334 81.5519 148.334 79.3396V70.0613H151.37V79.6895C151.37 83.3805 149.211 85.2993 145.444 85.2993C141.677 85.2993 139.507 83.482 139.507 79.6895V71.6754C139.507 70.8627 140.215 70.0613 141.047 70.0613H141.059Z" fill="#4F6C32"/>
<path d="M158.309 70.0613H159.827V82.3194H167.137V85.0849H156.769V71.6754C156.769 70.8063 157.455 70.0613 158.309 70.0613Z" fill="#4F6C32"/>
<path d="M171.354 70.0613H181.722V72.7364H177.302V85.0849H174.244V72.7364H169.824V71.6754C169.824 70.8063 170.51 70.0613 171.365 70.0613H171.354Z" fill="#4F6C32"/>
<path d="M187.097 71.6754C187.097 70.6144 187.603 70.0613 188.637 70.0613H190.155V85.0849H187.097V71.6754Z" fill="#4F6C32"/>
<path d="M204.808 80.9086C204.808 80.1749 204.37 79.6896 203.447 79.4299C202.57 79.1703 201.558 78.8994 200.479 78.6172C197.555 77.861 196.093 76.4952 196.093 74.5086C196.161 71.3481 198.027 69.8018 201.727 69.8243C205.247 69.8243 207.08 71.3707 207.248 74.486H205.528C204.887 74.486 204.448 74.1813 204.167 73.6056C203.661 72.7478 202.761 72.3302 201.457 72.3302C199.871 72.3527 199.073 72.951 199.017 74.091C199.017 75.0391 199.961 75.7277 201.918 76.1679C203.043 76.4275 204.223 76.7661 205.483 77.2063C207.158 77.782 207.945 79.0236 207.856 80.9199C207.676 83.8546 205.696 85.322 201.918 85.322C198.14 85.322 195.958 83.6627 195.868 80.4007H198.837C198.949 81.9922 199.961 82.7823 201.918 82.7823C203.875 82.7823 204.819 82.1615 204.797 80.9312L204.808 80.9086Z" fill="#4F6C32"/>
<path d="M220.18 79.7346H216.391V85.0849H213.332V71.6754C213.332 70.8063 214.018 70.0613 214.873 70.0613H219.955C223.127 70.0613 224.78 71.7657 224.78 74.9036C224.78 77.8609 223.172 79.7459 220.18 79.7459V79.7346ZM219.404 77.0143C220.945 77.0369 221.71 76.3032 221.71 74.8472C221.71 73.3911 220.979 72.6574 219.551 72.6574H216.424V77.0143H219.393H219.404Z" fill="#4F6C32"/>
<path d="M230.199 71.6754C230.199 70.6369 230.705 70.0839 231.74 70.0613H241.028V72.6687H233.213V75.8969H239.049V76.8902C239.072 77.9286 238.543 78.4366 237.464 78.4366H233.213V82.3307H241.028V85.0962H230.199V71.6867V71.6754Z" fill="#4F6C32"/>
<path d="M253.263 85.3107C248.664 85.3107 246.37 82.2631 246.37 77.5788C246.37 72.8945 248.788 69.8243 253.522 69.8243C255.344 69.8243 256.828 70.2645 257.953 71.1901C259.01 72.1383 259.606 73.4476 259.752 75.073H257.908C257.244 75.073 256.761 74.7682 256.48 74.17C255.973 73.0864 254.984 72.5333 253.533 72.5333C250.7 72.5333 249.44 74.5425 249.44 77.5675C249.44 80.5926 250.655 82.5792 253.443 82.5792C255.355 82.5792 256.457 81.5181 256.783 79.8589H259.752C259.46 83.3241 257.042 85.2994 253.263 85.2994V85.3107Z" fill="#4F6C32"/>
<path d="M265.206 71.6754C265.206 70.6144 265.712 70.0613 266.747 70.0613H268.265V85.0849H265.206V71.6754Z" fill="#4F6C32"/>
<path d="M282.624 70.0613L288 85.0849H284.761L283.771 82.0147H277.98L276.991 85.0849H273.707L278.7 71.0546C278.925 70.3886 279.408 70.0613 280.151 70.0613H282.613H282.624ZM278.79 79.475H282.906L280.836 73.0863L278.79 79.475Z" fill="#4F6C32"/>
<path d="M294.983 70.0613H296.501V82.3194H303.81V85.0849H293.442V71.6754C293.442 70.8063 294.128 70.0613 294.983 70.0613Z" fill="#4F6C32"/>
<path d="M309.062 71.6754C309.062 70.6144 309.569 70.0613 310.603 70.0613H312.121V85.0849H309.062V71.6754Z" fill="#4F6C32"/>
<path d="M319.149 70.0613H329.518V72.7364H325.098V85.0849H322.039V72.7364H317.62V71.6754C317.62 70.8063 318.306 70.0613 319.161 70.0613H319.149Z" fill="#4F6C32"/>
<path d="M340.178 85.0849V79.475L334.758 70.0613H338.502L341.741 76.5403L344.271 70.9756C344.552 70.3773 345.025 70.0726 345.677 70.0726H348.185L343.282 79.4863V85.0962H340.178V85.0849Z" fill="#4F6C32"/>
<path d="M369.302 70.0613H370.865V75.6711H377.005V70.0613H380.109V85.0849H377.005V78.4366H370.865V85.0849H367.762V71.6754C367.762 70.8063 368.448 70.0613 369.302 70.0613Z" fill="#4F6C32"/>
<path d="M385.36 77.5675C385.36 72.9735 388.07 69.813 392.512 69.813C396.954 69.813 399.687 73.0186 399.687 77.5675C399.687 82.1163 397.067 85.2994 392.512 85.2994C387.958 85.2994 385.36 82.1615 385.36 77.5675ZM388.419 77.5675C388.419 80.5022 389.712 82.7145 392.512 82.7145C395.312 82.7145 396.628 80.5925 396.628 77.5675C396.628 74.5424 395.312 72.4881 392.512 72.4881C389.712 72.4881 388.419 74.6553 388.419 77.5675Z" fill="#4F6C32"/>
<path d="M414.294 80.9086C414.294 80.1749 413.856 79.6896 412.934 79.4299C412.057 79.1703 411.045 78.8994 409.965 78.6172C407.041 77.861 405.579 76.4952 405.579 74.5086C405.647 71.3481 407.514 69.8018 411.213 69.8243C414.733 69.8243 416.566 71.3707 416.735 74.486H415.014C414.373 74.486 413.935 74.1813 413.653 73.6056C413.147 72.7478 412.248 72.3302 410.943 72.3302C409.358 72.3527 408.559 72.951 408.503 74.091C408.503 75.0391 409.448 75.7277 411.404 76.1679C412.529 76.4275 413.71 76.7661 414.969 77.2063C416.645 77.782 417.432 79.0236 417.342 80.9199C417.162 83.8546 415.183 85.322 411.404 85.322C407.626 85.322 405.444 83.6627 405.354 80.4007H408.323C408.436 81.9922 409.448 82.7823 411.404 82.7823C413.361 82.7823 414.306 82.1615 414.283 80.9312L414.294 80.9086Z" fill="#4F6C32"/>
<path d="M429.667 79.7346H425.877V85.0849H422.818V71.6754C422.818 70.8063 423.504 70.0613 424.359 70.0613H429.442C432.613 70.0613 434.266 71.7657 434.266 74.9036C434.266 77.8609 432.658 79.7459 429.667 79.7459V79.7346ZM428.902 77.0143C430.443 77.0369 431.207 76.3032 431.207 74.8472C431.207 73.3911 430.476 72.6574 429.048 72.6574H425.922V77.0143H428.891H428.902Z" fill="#4F6C32"/>
<path d="M439.607 71.6754C439.607 70.6144 440.113 70.0613 441.148 70.0613H442.666V85.0849H439.607V71.6754Z" fill="#4F6C32"/>
<path d="M449.694 70.0613H460.062V72.7364H455.643V85.0849H452.584V72.7364H448.165V71.6754C448.165 70.8063 448.851 70.0613 449.706 70.0613H449.694Z" fill="#4F6C32"/>
<path d="M471.296 70.0613L476.672 85.0849H473.433L472.443 82.0147H466.652L465.662 85.0849H462.379L467.372 71.0546C467.597 70.3886 468.08 70.0613 468.822 70.0613H471.285H471.296ZM467.462 79.475H471.577L469.508 73.0863L467.462 79.475Z" fill="#4F6C32"/>
<path d="M483.655 70.0613H485.173V82.3194H492.482V85.0849H482.114V71.6754C482.114 70.8063 482.8 70.0613 483.655 70.0613Z" fill="#4F6C32"/>
<path d="M118.164 58.7738H493" stroke="#818181" stroke-width="0.55" stroke-miterlimit="10"/>
<path d="M135.932 25.4195C135.313 24.6294 134.503 24.0085 133.514 23.5458C132.513 23.083 131.557 22.8459 130.635 22.8459C130.163 22.8459 129.679 22.8911 129.184 22.9701C128.69 23.0491 128.251 23.2184 127.857 23.4555C127.464 23.6925 127.138 24.0085 126.868 24.381C126.598 24.7648 126.463 25.2502 126.463 25.8371C126.463 26.345 126.564 26.7627 126.778 27.1013C126.992 27.4399 127.295 27.7334 127.7 27.993C128.105 28.2413 128.588 28.4784 129.151 28.6928C129.713 28.9073 130.343 29.1218 131.04 29.3475C132.052 29.6861 133.098 30.0586 134.2 30.4649C135.291 30.8713 136.291 31.4131 137.191 32.0903C138.091 32.7676 138.833 33.6029 139.418 34.6075C140.002 35.612 140.306 36.8536 140.306 38.3436C140.306 40.0593 139.991 41.5492 139.361 42.8021C138.732 44.055 137.877 45.0935 136.82 45.9062C135.752 46.7189 134.537 47.3284 133.154 47.7235C131.782 48.1185 130.365 48.3104 128.903 48.3104C126.767 48.3104 124.709 47.9379 122.718 47.1929C120.728 46.448 119.075 45.3869 117.748 43.9986L122.46 39.1789C123.191 40.0818 124.147 40.8268 125.339 41.4363C126.531 42.0459 127.711 42.3506 128.892 42.3506C129.421 42.3506 129.938 42.2942 130.455 42.1813C130.961 42.0684 131.4 41.8879 131.782 41.6282C132.164 41.3799 132.468 41.0413 132.693 40.6124C132.918 40.1947 133.03 39.6868 133.03 39.0886C133.03 38.4903 132.884 38.0501 132.603 37.6551C132.322 37.26 131.917 36.8988 131.4 36.5828C130.882 36.2554 130.241 35.9619 129.466 35.691C128.69 35.4201 127.824 35.1379 126.834 34.8219C125.878 34.5171 124.945 34.1447 124.034 33.727C123.123 33.3094 122.314 32.7676 121.594 32.1016C120.874 31.4357 120.301 30.6343 119.873 29.6974C119.435 28.7493 119.221 27.6092 119.221 26.2547C119.221 24.5955 119.559 23.1733 120.233 21.9881C120.908 20.8029 121.785 19.8322 122.887 19.0759C123.989 18.3197 125.215 17.7553 126.598 17.4054C127.97 17.0555 129.364 16.8749 130.77 16.8749C132.457 16.8749 134.177 17.1909 135.92 17.8005C137.663 18.41 139.215 19.3355 140.531 20.5433L135.943 25.4082L135.932 25.4195Z" fill="#4F6C32"/>
<path d="M165.27 47.5542L162.953 41.6847H151.416L149.223 47.5542H141.396L153.901 17.6425H160.884L173.265 47.5542H165.27ZM157.275 25.6339L153.485 35.9055H160.974L157.263 25.6339H157.275Z" fill="#4F6C32"/>
<path d="M194.699 47.5542L182.7 27.993H182.576L182.745 47.5542H175.762V17.6425H183.971L195.924 37.1584H196.048L195.879 17.6425H202.863V47.5542H194.699Z" fill="#4F6C32"/>
<path d="M230.368 47.5993C228.411 48.0734 226.286 48.3217 223.992 48.3217C221.698 48.3217 219.415 47.9379 217.402 47.1817C215.39 46.4254 213.669 45.3531 212.23 43.976C210.779 42.5989 209.655 40.9397 208.845 39.0095C208.035 37.0794 207.619 34.9348 207.619 32.5644C207.619 30.194 208.035 28.0043 208.856 26.0628C209.688 24.1214 210.824 22.4622 212.286 21.0964C213.748 19.7306 215.457 18.6809 217.425 17.9472C219.393 17.2135 221.507 16.8523 223.778 16.8523C226.05 16.8523 228.322 17.2135 230.346 17.9246C232.37 18.6357 234.012 19.6064 235.271 20.8142L230.728 26.0177C230.031 25.205 229.097 24.5278 227.95 24.0085C226.803 23.4893 225.488 23.2297 224.037 23.2297C222.778 23.2297 221.608 23.4667 220.54 23.9295C219.472 24.3923 218.549 25.047 217.762 25.871C216.975 26.6949 216.368 27.6882 215.929 28.8283C215.491 29.9683 215.277 31.2099 215.277 32.5644C215.277 33.9189 215.468 35.217 215.862 36.3683C216.255 37.5196 216.84 38.5129 217.605 39.3482C218.381 40.1834 219.325 40.8268 220.461 41.2896C221.597 41.7524 222.89 41.9894 224.352 41.9894C225.195 41.9894 225.994 41.9217 226.747 41.7975C227.501 41.6734 228.209 41.4702 228.85 41.188V35.7362H223.171V29.9119H235.462V45.7594C234 46.5157 232.291 47.1365 230.346 47.6219L230.368 47.5993Z" fill="#4F6C32"/>
<path d="M261.574 47.5542L259.257 41.6847H247.72L245.527 47.5542H237.7L250.205 17.6425H257.188L269.569 47.5542H261.574ZM253.578 25.6339L249.789 35.9055H257.278L253.567 25.6339H253.578Z" fill="#4F6C32"/>
<path d="M299.088 47.5542L299.256 26.3902H299.133L291.385 47.5542H286.336L278.801 26.3902H278.678L278.846 47.5542H272.065V17.6425H282.31L289.091 36.8198H289.259L295.748 17.6425H306.161V47.5542H299.088Z" fill="#4F6C32"/>
<path d="M312.256 47.5542V17.6425H332.295V23.7264H319.205V29.3927H331.586V35.1831H319.205V41.3912H333.059V47.5542H312.267H312.256Z" fill="#4F6C32"/>
<path d="M353.549 25.4195C352.93 24.6294 352.121 24.0085 351.131 23.5458C350.13 23.083 349.174 22.8459 348.252 22.8459C347.78 22.8459 347.296 22.8911 346.802 22.9701C346.307 23.0491 345.868 23.2184 345.475 23.4555C345.081 23.6925 344.755 24.0085 344.485 24.381C344.215 24.7648 344.08 25.2502 344.08 25.8371C344.08 26.345 344.181 26.7627 344.395 27.1013C344.609 27.4399 344.912 27.7334 345.317 27.993C345.722 28.2413 346.206 28.4784 346.768 28.6928C347.33 28.9073 347.96 29.1218 348.657 29.3475C349.669 29.6861 350.715 30.0586 351.817 30.4649C352.908 30.8713 353.909 31.4131 354.808 32.0903C355.708 32.7676 356.45 33.6029 357.035 34.6075C357.619 35.612 357.923 36.8536 357.923 38.3436C357.923 40.0593 357.608 41.5492 356.978 42.8021C356.349 44.055 355.494 45.0935 354.437 45.9062C353.369 46.7189 352.154 47.3284 350.771 47.7235C349.399 48.1185 347.982 48.3104 346.52 48.3104C344.384 48.3104 342.326 47.9379 340.336 47.1929C338.345 46.448 336.692 45.3869 335.365 43.9986L340.077 39.1789C340.808 40.0818 341.764 40.8268 342.956 41.4363C344.148 42.0459 345.328 42.3506 346.509 42.3506C347.038 42.3506 347.555 42.2942 348.072 42.1813C348.578 42.0684 349.017 41.8879 349.399 41.6282C349.782 41.3799 350.085 41.0413 350.31 40.6124C350.535 40.1947 350.647 39.6868 350.647 39.0886C350.647 38.4903 350.501 38.0501 350.22 37.6551C349.939 37.26 349.534 36.8988 349.017 36.5828C348.5 36.2554 347.859 35.9619 347.083 35.691C346.307 35.4201 345.441 35.1379 344.451 34.8219C343.496 34.5171 342.562 34.1447 341.651 33.727C340.74 33.3094 339.931 32.7676 339.211 32.1016C338.491 31.4357 337.918 30.6343 337.491 29.6974C337.052 28.7493 336.838 27.6092 336.838 26.2547C336.838 24.5955 337.176 23.1733 337.85 21.9881C338.525 20.8029 339.402 19.8322 340.504 19.0759C341.606 18.3197 342.832 17.7553 344.215 17.4054C345.587 17.0555 346.982 16.8749 348.387 16.8749C350.074 16.8749 351.794 17.1909 353.537 17.8005C355.28 18.41 356.832 19.3355 358.148 20.5433L353.56 25.4082L353.549 25.4195Z" fill="#4F6C32"/>
<path d="M381.504 47.5542V35.0477H369.887V47.5542H362.69V17.6425H369.887V28.9638H381.504V17.6425H388.701V47.5542H381.504Z" fill="#4F6C32"/>
<path d="M426.406 47.5542H419.287L413.395 27.3158H413.271L407.379 47.5542H400.227L391.771 17.6425H399.518L404.23 37.5422H404.354L409.662 17.6425H417.151L422.492 37.5422H422.616L427.418 17.6425H434.907L426.406 47.5542Z" fill="#4F6C32"/>
<path d="M457.69 47.5542L455.373 41.6847H443.836L441.643 47.5542H433.816L446.321 17.6425H453.304L465.685 47.5542H457.69ZM449.683 25.6339L445.894 35.9055H453.383L449.672 25.6339H449.683Z" fill="#4F6C32"/>
<path d="M484.116 47.5542L477.65 35.6798H475.198V47.5542H468.17V17.6425H479.539C480.967 17.6425 482.361 17.7892 483.722 18.0827C485.083 18.3761 486.308 18.8841 487.388 19.5839C488.467 20.2837 489.333 21.2206 489.974 22.3719C490.615 23.5232 490.941 24.968 490.941 26.6837C490.941 28.7154 490.39 30.4198 489.3 31.7969C488.209 33.174 486.691 34.1673 484.757 34.7542L492.538 47.5542H484.116ZM483.823 26.8079C483.823 26.108 483.677 25.5324 483.373 25.0922C483.081 24.6519 482.699 24.3133 482.226 24.0763C481.754 23.8393 481.237 23.6699 480.663 23.5909C480.09 23.5119 479.528 23.4668 478.988 23.4668H475.142V30.4424H478.572C479.168 30.4424 479.775 30.3973 480.393 30.2957C481.012 30.1941 481.574 30.0248 482.08 29.7652C482.586 29.5055 483.002 29.1443 483.328 28.6703C483.655 28.1962 483.812 27.5754 483.812 26.8079H483.823Z" fill="#4F6C32"/>
</svg>
