<svg width="317" height="102" viewBox="0 0 317 102" fill="none" xmlns="http://www.w3.org/2000/svg">
<path d="M-30 57.2888H34.2408C34.4499 57.2888 34.6347 57.4247 34.697 57.6241L40.0736 74.8752C40.22 75.3451 40.8967 75.3126 40.9974 74.8308L50.5093 29.3108C50.6141 28.8095 51.3285 28.8028 51.4427 29.3021L57.5906 56.1739C57.6852 56.5871 58.2321 56.6812 58.4596 56.3233L60.3957 53.2782C60.5973 52.9612 61.0698 52.9903 61.2307 53.3298L64.1285 59.4394C64.3244 59.8524 64.9335 59.7806 65.0277 59.3334L67.6735 46.7822C67.7817 46.2689 68.5194 46.2805 68.6114 46.797L74.454 79.6196C74.551 80.1667 75.348 80.1339 75.4 79.5807L80.866 21.4823C80.915 20.9587 81.652 20.8882 81.8 21.3928L92.194 56.8377C92.254 57.0413 92.441 57.1812 92.654 57.1807L162.828 57.0242C163.014 57.0238 163.183 56.9151 163.261 56.7457L164.656 53.7035C164.85 53.28 165.475 53.357 165.56 53.8151L167.646 65.0308C167.741 65.5439 168.474 65.5536 168.582 65.0432C169.996 58.4133 173.935 39.9599 174.112 39.431C174.285 38.9139 178.332 58.5745 179.93 66.3926C180.04 66.9299 180.822 66.8873 180.874 66.3412L181.808 56.4762C181.859 55.9406 182.62 55.8848 182.748 56.4074C183.658 60.1317 185.275 66.5167 186.169 68.6755C187.261 71.3105 192.658 18.0082 194.304 1.42971C194.361 0.855904 195.199 0.857171 195.255 1.43107L204.939 100.569C204.994 101.132 205.81 101.149 205.888 100.589L214.919 35.6883C214.99 35.1755 215.714 35.1274 215.852 35.6262L223.225 62.1355C223.364 62.6354 224.09 62.5858 224.159 62.0716L226.16 47.2521C226.227 46.7525 226.924 46.6852 227.086 47.1627L230.197 56.3275C230.263 56.5211 230.445 56.6514 230.649 56.6514H316" stroke="#73BF8F" stroke-width="2" stroke-miterlimit="10" stroke-linecap="round" stroke-linejoin="round"/>
</svg>
